<mxfile host="app.diagrams.net" modified="2021-02-19T02:43:38.078Z" agent="5.0 (Windows NT 10.0; Win64; x64) AppleWebKit/537.36 (KHTML, like Gecko) Chrome/86.0.4240.183 Safari/537.36" etag="2XNzzFYHdrvWAPm1IHlG" version="14.4.2" type="github">
  <diagram id="R2lEEEUBdFMjLlhIrx00" name="Page-1">
    <mxGraphModel dx="1422" dy="802" grid="1" gridSize="10" guides="1" tooltips="1" connect="1" arrows="1" fold="1" page="1" pageScale="1" pageWidth="850" pageHeight="1100" math="0" shadow="0" extFonts="Permanent Marker^https://fonts.googleapis.com/css?family=Permanent+Marker">
      <root>
        <mxCell id="0" />
        <mxCell id="1" parent="0" />
        <mxCell id="DA4g0Scjdkf1gucJsFsH-38" value="&lt;font style=&quot;font-size: 14px&quot;&gt;workflow definition&lt;/font&gt;" style="text;strokeColor=none;fillColor=none;html=1;fontSize=24;fontStyle=1;verticalAlign=middle;align=center;" vertex="1" parent="1">
          <mxGeometry x="40" y="140" width="120" height="40" as="geometry" />
        </mxCell>
        <mxCell id="DA4g0Scjdkf1gucJsFsH-209" value="deploy&lt;br&gt;migration" style="edgeStyle=orthogonalEdgeStyle;rounded=0;orthogonalLoop=1;jettySize=auto;html=1;exitX=0.5;exitY=1;exitDx=0;exitDy=0;entryX=0.5;entryY=0;entryDx=0;entryDy=0;" edge="1" parent="1" source="DA4g0Scjdkf1gucJsFsH-103" target="DA4g0Scjdkf1gucJsFsH-136">
          <mxGeometry relative="1" as="geometry" />
        </mxCell>
        <mxCell id="DA4g0Scjdkf1gucJsFsH-103" value="workflows" style="shape=table;startSize=30;container=1;collapsible=1;childLayout=tableLayout;fixedRows=1;rowLines=0;fontStyle=1;align=center;resizeLast=1;" vertex="1" parent="1">
          <mxGeometry x="40" y="400" width="160" height="100" as="geometry" />
        </mxCell>
        <mxCell id="DA4g0Scjdkf1gucJsFsH-104" value="" style="shape=partialRectangle;collapsible=0;dropTarget=0;pointerEvents=0;fillColor=none;top=0;left=0;bottom=0;right=0;points=[[0,0.5],[1,0.5]];portConstraint=eastwest;" vertex="1" parent="DA4g0Scjdkf1gucJsFsH-103">
          <mxGeometry y="30" width="160" height="30" as="geometry" />
        </mxCell>
        <mxCell id="DA4g0Scjdkf1gucJsFsH-105" value="PK,FK1" style="shape=partialRectangle;connectable=0;fillColor=none;top=0;left=0;bottom=0;right=0;fontStyle=1;overflow=hidden;" vertex="1" parent="DA4g0Scjdkf1gucJsFsH-104">
          <mxGeometry width="60" height="30" as="geometry" />
        </mxCell>
        <mxCell id="DA4g0Scjdkf1gucJsFsH-106" value="id" style="shape=partialRectangle;connectable=0;fillColor=none;top=0;left=0;bottom=0;right=0;align=left;spacingLeft=6;fontStyle=5;overflow=hidden;" vertex="1" parent="DA4g0Scjdkf1gucJsFsH-104">
          <mxGeometry x="60" width="100" height="30" as="geometry" />
        </mxCell>
        <mxCell id="DA4g0Scjdkf1gucJsFsH-110" value="" style="shape=partialRectangle;collapsible=0;dropTarget=0;pointerEvents=0;fillColor=none;top=0;left=0;bottom=0;right=0;points=[[0,0.5],[1,0.5]];portConstraint=eastwest;" vertex="1" parent="DA4g0Scjdkf1gucJsFsH-103">
          <mxGeometry y="60" width="160" height="30" as="geometry" />
        </mxCell>
        <mxCell id="DA4g0Scjdkf1gucJsFsH-111" value="" style="shape=partialRectangle;connectable=0;fillColor=none;top=0;left=0;bottom=0;right=0;editable=1;overflow=hidden;" vertex="1" parent="DA4g0Scjdkf1gucJsFsH-110">
          <mxGeometry width="60" height="30" as="geometry" />
        </mxCell>
        <mxCell id="DA4g0Scjdkf1gucJsFsH-112" value="" style="shape=partialRectangle;connectable=0;fillColor=none;top=0;left=0;bottom=0;right=0;align=left;spacingLeft=6;overflow=hidden;" vertex="1" parent="DA4g0Scjdkf1gucJsFsH-110">
          <mxGeometry x="60" width="100" height="30" as="geometry" />
        </mxCell>
        <mxCell id="DA4g0Scjdkf1gucJsFsH-123" value="workflow_defs" style="shape=table;startSize=30;container=1;collapsible=1;childLayout=tableLayout;fixedRows=1;rowLines=0;fontStyle=1;align=center;resizeLast=1;" vertex="1" parent="1">
          <mxGeometry x="40" y="200" width="160" height="160" as="geometry" />
        </mxCell>
        <mxCell id="DA4g0Scjdkf1gucJsFsH-124" value="" style="shape=partialRectangle;collapsible=0;dropTarget=0;pointerEvents=0;fillColor=none;top=0;left=0;bottom=0;right=0;points=[[0,0.5],[1,0.5]];portConstraint=eastwest;" vertex="1" parent="DA4g0Scjdkf1gucJsFsH-123">
          <mxGeometry y="30" width="160" height="30" as="geometry" />
        </mxCell>
        <mxCell id="DA4g0Scjdkf1gucJsFsH-125" value="PK,FK1" style="shape=partialRectangle;connectable=0;fillColor=none;top=0;left=0;bottom=0;right=0;fontStyle=1;overflow=hidden;" vertex="1" parent="DA4g0Scjdkf1gucJsFsH-124">
          <mxGeometry width="60" height="30" as="geometry" />
        </mxCell>
        <mxCell id="DA4g0Scjdkf1gucJsFsH-126" value="id" style="shape=partialRectangle;connectable=0;fillColor=none;top=0;left=0;bottom=0;right=0;align=left;spacingLeft=6;fontStyle=5;overflow=hidden;" vertex="1" parent="DA4g0Scjdkf1gucJsFsH-124">
          <mxGeometry x="60" width="100" height="30" as="geometry" />
        </mxCell>
        <mxCell id="DA4g0Scjdkf1gucJsFsH-130" value="" style="shape=partialRectangle;collapsible=0;dropTarget=0;pointerEvents=0;fillColor=none;top=0;left=0;bottom=0;right=0;points=[[0,0.5],[1,0.5]];portConstraint=eastwest;" vertex="1" parent="DA4g0Scjdkf1gucJsFsH-123">
          <mxGeometry y="60" width="160" height="30" as="geometry" />
        </mxCell>
        <mxCell id="DA4g0Scjdkf1gucJsFsH-131" value="" style="shape=partialRectangle;connectable=0;fillColor=none;top=0;left=0;bottom=0;right=0;editable=1;overflow=hidden;" vertex="1" parent="DA4g0Scjdkf1gucJsFsH-130">
          <mxGeometry width="60" height="30" as="geometry" />
        </mxCell>
        <mxCell id="DA4g0Scjdkf1gucJsFsH-132" value="workflow_id" style="shape=partialRectangle;connectable=0;fillColor=none;top=0;left=0;bottom=0;right=0;align=left;spacingLeft=6;overflow=hidden;" vertex="1" parent="DA4g0Scjdkf1gucJsFsH-130">
          <mxGeometry x="60" width="100" height="30" as="geometry" />
        </mxCell>
        <mxCell id="DA4g0Scjdkf1gucJsFsH-133" value="" style="shape=partialRectangle;collapsible=0;dropTarget=0;pointerEvents=0;fillColor=none;top=0;left=0;bottom=0;right=0;points=[[0,0.5],[1,0.5]];portConstraint=eastwest;" vertex="1" parent="DA4g0Scjdkf1gucJsFsH-123">
          <mxGeometry y="90" width="160" height="30" as="geometry" />
        </mxCell>
        <mxCell id="DA4g0Scjdkf1gucJsFsH-134" value="" style="shape=partialRectangle;connectable=0;fillColor=none;top=0;left=0;bottom=0;right=0;editable=1;overflow=hidden;" vertex="1" parent="DA4g0Scjdkf1gucJsFsH-133">
          <mxGeometry width="60" height="30" as="geometry" />
        </mxCell>
        <mxCell id="DA4g0Scjdkf1gucJsFsH-135" value="version" style="shape=partialRectangle;connectable=0;fillColor=none;top=0;left=0;bottom=0;right=0;align=left;spacingLeft=6;overflow=hidden;" vertex="1" parent="DA4g0Scjdkf1gucJsFsH-133">
          <mxGeometry x="60" width="100" height="30" as="geometry" />
        </mxCell>
        <mxCell id="DA4g0Scjdkf1gucJsFsH-236" style="edgeStyle=orthogonalEdgeStyle;rounded=0;orthogonalLoop=1;jettySize=auto;html=1;exitX=1;exitY=0.5;exitDx=0;exitDy=0;entryX=0.13;entryY=0.77;entryDx=0;entryDy=0;entryPerimeter=0;" edge="1" parent="1" source="DA4g0Scjdkf1gucJsFsH-137" target="DA4g0Scjdkf1gucJsFsH-210">
          <mxGeometry relative="1" as="geometry" />
        </mxCell>
        <mxCell id="DA4g0Scjdkf1gucJsFsH-237" value="deploy.migration&lt;br&gt;deploy.undo" style="edgeLabel;html=1;align=center;verticalAlign=middle;resizable=0;points=[];" vertex="1" connectable="0" parent="DA4g0Scjdkf1gucJsFsH-236">
          <mxGeometry x="-0.1591" y="-3" relative="1" as="geometry">
            <mxPoint as="offset" />
          </mxGeometry>
        </mxCell>
        <mxCell id="DA4g0Scjdkf1gucJsFsH-136" value="workflow_deploys" style="shape=table;startSize=30;container=1;collapsible=1;childLayout=tableLayout;fixedRows=1;rowLines=0;fontStyle=1;align=center;resizeLast=1;" vertex="1" parent="1">
          <mxGeometry x="40" y="560" width="160" height="180" as="geometry" />
        </mxCell>
        <mxCell id="DA4g0Scjdkf1gucJsFsH-137" value="" style="shape=partialRectangle;collapsible=0;dropTarget=0;pointerEvents=0;fillColor=none;top=0;left=0;bottom=0;right=0;points=[[0,0.5],[1,0.5]];portConstraint=eastwest;" vertex="1" parent="DA4g0Scjdkf1gucJsFsH-136">
          <mxGeometry y="30" width="160" height="30" as="geometry" />
        </mxCell>
        <mxCell id="DA4g0Scjdkf1gucJsFsH-138" value="PK,FK1" style="shape=partialRectangle;connectable=0;fillColor=none;top=0;left=0;bottom=0;right=0;fontStyle=1;overflow=hidden;" vertex="1" parent="DA4g0Scjdkf1gucJsFsH-137">
          <mxGeometry width="60" height="30" as="geometry" />
        </mxCell>
        <mxCell id="DA4g0Scjdkf1gucJsFsH-139" value="id" style="shape=partialRectangle;connectable=0;fillColor=none;top=0;left=0;bottom=0;right=0;align=left;spacingLeft=6;fontStyle=5;overflow=hidden;" vertex="1" parent="DA4g0Scjdkf1gucJsFsH-137">
          <mxGeometry x="60" width="100" height="30" as="geometry" />
        </mxCell>
        <mxCell id="DA4g0Scjdkf1gucJsFsH-143" value="" style="shape=partialRectangle;collapsible=0;dropTarget=0;pointerEvents=0;fillColor=none;top=0;left=0;bottom=0;right=0;points=[[0,0.5],[1,0.5]];portConstraint=eastwest;" vertex="1" parent="DA4g0Scjdkf1gucJsFsH-136">
          <mxGeometry y="60" width="160" height="30" as="geometry" />
        </mxCell>
        <mxCell id="DA4g0Scjdkf1gucJsFsH-144" value="" style="shape=partialRectangle;connectable=0;fillColor=none;top=0;left=0;bottom=0;right=0;editable=1;overflow=hidden;" vertex="1" parent="DA4g0Scjdkf1gucJsFsH-143">
          <mxGeometry width="60" height="30" as="geometry" />
        </mxCell>
        <mxCell id="DA4g0Scjdkf1gucJsFsH-145" value="station_id" style="shape=partialRectangle;connectable=0;fillColor=none;top=0;left=0;bottom=0;right=0;align=left;spacingLeft=6;overflow=hidden;" vertex="1" parent="DA4g0Scjdkf1gucJsFsH-143">
          <mxGeometry x="60" width="100" height="30" as="geometry" />
        </mxCell>
        <mxCell id="DA4g0Scjdkf1gucJsFsH-157" value="" style="shape=partialRectangle;connectable=0;fillColor=none;top=0;left=0;bottom=0;right=0;editable=1;overflow=hidden;" vertex="1" parent="1">
          <mxGeometry x="520" y="330" width="60" height="30" as="geometry" />
        </mxCell>
        <mxCell id="DA4g0Scjdkf1gucJsFsH-159" style="edgeStyle=orthogonalEdgeStyle;rounded=0;orthogonalLoop=1;jettySize=auto;html=1;exitX=0;exitY=0.5;exitDx=0;exitDy=0;entryX=0;entryY=0.5;entryDx=0;entryDy=0;" edge="1" parent="1" source="DA4g0Scjdkf1gucJsFsH-104" target="DA4g0Scjdkf1gucJsFsH-130">
          <mxGeometry relative="1" as="geometry">
            <mxPoint x="300" y="275" as="targetPoint" />
          </mxGeometry>
        </mxCell>
        <mxCell id="DA4g0Scjdkf1gucJsFsH-161" value="" style="shape=partialRectangle;collapsible=0;dropTarget=0;pointerEvents=0;fillColor=none;top=0;left=0;bottom=0;right=0;points=[[0,0.5],[1,0.5]];portConstraint=eastwest;" vertex="1" parent="1">
          <mxGeometry x="40" y="290" width="160" height="30" as="geometry" />
        </mxCell>
        <mxCell id="DA4g0Scjdkf1gucJsFsH-162" value="" style="shape=partialRectangle;connectable=0;fillColor=none;top=0;left=0;bottom=0;right=0;editable=1;overflow=hidden;" vertex="1" parent="DA4g0Scjdkf1gucJsFsH-161">
          <mxGeometry width="60" height="30" as="geometry" />
        </mxCell>
        <mxCell id="DA4g0Scjdkf1gucJsFsH-163" value="param" style="shape=partialRectangle;connectable=0;fillColor=none;top=0;left=0;bottom=0;right=0;align=left;spacingLeft=6;overflow=hidden;" vertex="1" parent="DA4g0Scjdkf1gucJsFsH-161">
          <mxGeometry x="60" y="11" width="100" height="30" as="geometry" />
        </mxCell>
        <mxCell id="DA4g0Scjdkf1gucJsFsH-164" value="instances" style="shape=table;startSize=30;container=1;collapsible=1;childLayout=tableLayout;fixedRows=1;rowLines=0;fontStyle=1;align=center;resizeLast=1;" vertex="1" parent="1">
          <mxGeometry x="360" y="200" width="160" height="150" as="geometry" />
        </mxCell>
        <mxCell id="DA4g0Scjdkf1gucJsFsH-165" value="" style="shape=partialRectangle;collapsible=0;dropTarget=0;pointerEvents=0;fillColor=none;top=0;left=0;bottom=0;right=0;points=[[0,0.5],[1,0.5]];portConstraint=eastwest;" vertex="1" parent="DA4g0Scjdkf1gucJsFsH-164">
          <mxGeometry y="30" width="160" height="30" as="geometry" />
        </mxCell>
        <mxCell id="DA4g0Scjdkf1gucJsFsH-166" value="PK,FK1" style="shape=partialRectangle;connectable=0;fillColor=none;top=0;left=0;bottom=0;right=0;fontStyle=1;overflow=hidden;" vertex="1" parent="DA4g0Scjdkf1gucJsFsH-165">
          <mxGeometry width="60" height="30" as="geometry" />
        </mxCell>
        <mxCell id="DA4g0Scjdkf1gucJsFsH-167" value="id" style="shape=partialRectangle;connectable=0;fillColor=none;top=0;left=0;bottom=0;right=0;align=left;spacingLeft=6;fontStyle=5;overflow=hidden;" vertex="1" parent="DA4g0Scjdkf1gucJsFsH-165">
          <mxGeometry x="60" width="100" height="30" as="geometry" />
        </mxCell>
        <mxCell id="DA4g0Scjdkf1gucJsFsH-168" value="" style="shape=partialRectangle;collapsible=0;dropTarget=0;pointerEvents=0;fillColor=none;top=0;left=0;bottom=0;right=0;points=[[0,0.5],[1,0.5]];portConstraint=eastwest;" vertex="1" parent="DA4g0Scjdkf1gucJsFsH-164">
          <mxGeometry y="60" width="160" height="30" as="geometry" />
        </mxCell>
        <mxCell id="DA4g0Scjdkf1gucJsFsH-169" value="" style="shape=partialRectangle;connectable=0;fillColor=none;top=0;left=0;bottom=0;right=0;editable=1;overflow=hidden;" vertex="1" parent="DA4g0Scjdkf1gucJsFsH-168">
          <mxGeometry width="60" height="30" as="geometry" />
        </mxCell>
        <mxCell id="DA4g0Scjdkf1gucJsFsH-170" value="station_id" style="shape=partialRectangle;connectable=0;fillColor=none;top=0;left=0;bottom=0;right=0;align=left;spacingLeft=6;overflow=hidden;" vertex="1" parent="DA4g0Scjdkf1gucJsFsH-168">
          <mxGeometry x="60" width="100" height="30" as="geometry" />
        </mxCell>
        <mxCell id="DA4g0Scjdkf1gucJsFsH-171" value="" style="shape=partialRectangle;collapsible=0;dropTarget=0;pointerEvents=0;fillColor=none;top=0;left=0;bottom=0;right=0;points=[[0,0.5],[1,0.5]];portConstraint=eastwest;" vertex="1" parent="DA4g0Scjdkf1gucJsFsH-164">
          <mxGeometry y="90" width="160" height="30" as="geometry" />
        </mxCell>
        <mxCell id="DA4g0Scjdkf1gucJsFsH-172" value="" style="shape=partialRectangle;connectable=0;fillColor=none;top=0;left=0;bottom=0;right=0;editable=1;overflow=hidden;" vertex="1" parent="DA4g0Scjdkf1gucJsFsH-171">
          <mxGeometry width="60" height="30" as="geometry" />
        </mxCell>
        <mxCell id="DA4g0Scjdkf1gucJsFsH-173" value="workflow_id" style="shape=partialRectangle;connectable=0;fillColor=none;top=0;left=0;bottom=0;right=0;align=left;spacingLeft=6;overflow=hidden;" vertex="1" parent="DA4g0Scjdkf1gucJsFsH-171">
          <mxGeometry x="60" width="100" height="30" as="geometry" />
        </mxCell>
        <mxCell id="DA4g0Scjdkf1gucJsFsH-174" value="" style="shape=partialRectangle;collapsible=0;dropTarget=0;pointerEvents=0;fillColor=none;top=0;left=0;bottom=0;right=0;points=[[0,0.5],[1,0.5]];portConstraint=eastwest;" vertex="1" parent="1">
          <mxGeometry x="360" y="840" width="160" height="30" as="geometry" />
        </mxCell>
        <mxCell id="DA4g0Scjdkf1gucJsFsH-175" value="" style="shape=partialRectangle;connectable=0;fillColor=none;top=0;left=0;bottom=0;right=0;editable=1;overflow=hidden;" vertex="1" parent="DA4g0Scjdkf1gucJsFsH-174">
          <mxGeometry width="60" height="30" as="geometry" />
        </mxCell>
        <mxCell id="DA4g0Scjdkf1gucJsFsH-176" value="version" style="shape=partialRectangle;connectable=0;fillColor=none;top=0;left=0;bottom=0;right=0;align=left;spacingLeft=6;overflow=hidden;" vertex="1" parent="DA4g0Scjdkf1gucJsFsH-174">
          <mxGeometry x="60" width="100" height="30" as="geometry" />
        </mxCell>
        <mxCell id="DA4g0Scjdkf1gucJsFsH-177" value="&lt;font style=&quot;font-size: 14px&quot;&gt;Project Domain&lt;/font&gt;" style="text;strokeColor=none;fillColor=none;html=1;fontSize=24;fontStyle=1;verticalAlign=middle;align=center;" vertex="1" parent="1">
          <mxGeometry x="590" y="140" width="120" height="40" as="geometry" />
        </mxCell>
        <mxCell id="DA4g0Scjdkf1gucJsFsH-178" value="project_tasks" style="shape=table;startSize=30;container=1;collapsible=1;childLayout=tableLayout;fixedRows=1;rowLines=0;fontStyle=1;align=center;resizeLast=1;" vertex="1" parent="1">
          <mxGeometry x="600" y="560" width="160" height="100" as="geometry" />
        </mxCell>
        <mxCell id="DA4g0Scjdkf1gucJsFsH-179" value="" style="shape=partialRectangle;collapsible=0;dropTarget=0;pointerEvents=0;fillColor=none;top=0;left=0;bottom=0;right=0;points=[[0,0.5],[1,0.5]];portConstraint=eastwest;" vertex="1" parent="DA4g0Scjdkf1gucJsFsH-178">
          <mxGeometry y="30" width="160" height="30" as="geometry" />
        </mxCell>
        <mxCell id="DA4g0Scjdkf1gucJsFsH-180" value="PK,FK1" style="shape=partialRectangle;connectable=0;fillColor=none;top=0;left=0;bottom=0;right=0;fontStyle=1;overflow=hidden;" vertex="1" parent="DA4g0Scjdkf1gucJsFsH-179">
          <mxGeometry width="60" height="30" as="geometry" />
        </mxCell>
        <mxCell id="DA4g0Scjdkf1gucJsFsH-181" value="id" style="shape=partialRectangle;connectable=0;fillColor=none;top=0;left=0;bottom=0;right=0;align=left;spacingLeft=6;fontStyle=5;overflow=hidden;" vertex="1" parent="DA4g0Scjdkf1gucJsFsH-179">
          <mxGeometry x="60" width="100" height="30" as="geometry" />
        </mxCell>
        <mxCell id="DA4g0Scjdkf1gucJsFsH-182" value="" style="shape=partialRectangle;collapsible=0;dropTarget=0;pointerEvents=0;fillColor=none;top=0;left=0;bottom=0;right=0;points=[[0,0.5],[1,0.5]];portConstraint=eastwest;" vertex="1" parent="DA4g0Scjdkf1gucJsFsH-178">
          <mxGeometry y="60" width="160" height="30" as="geometry" />
        </mxCell>
        <mxCell id="DA4g0Scjdkf1gucJsFsH-183" value="" style="shape=partialRectangle;connectable=0;fillColor=none;top=0;left=0;bottom=0;right=0;editable=1;overflow=hidden;" vertex="1" parent="DA4g0Scjdkf1gucJsFsH-182">
          <mxGeometry width="60" height="30" as="geometry" />
        </mxCell>
        <mxCell id="DA4g0Scjdkf1gucJsFsH-184" value="" style="shape=partialRectangle;connectable=0;fillColor=none;top=0;left=0;bottom=0;right=0;align=left;spacingLeft=6;overflow=hidden;" vertex="1" parent="DA4g0Scjdkf1gucJsFsH-182">
          <mxGeometry x="60" width="100" height="30" as="geometry" />
        </mxCell>
        <mxCell id="DA4g0Scjdkf1gucJsFsH-185" value="projects" style="shape=table;startSize=30;container=1;collapsible=1;childLayout=tableLayout;fixedRows=1;rowLines=0;fontStyle=1;align=center;resizeLast=1;" vertex="1" parent="1">
          <mxGeometry x="599" y="386" width="221" height="164" as="geometry" />
        </mxCell>
        <mxCell id="DA4g0Scjdkf1gucJsFsH-186" value="" style="shape=partialRectangle;collapsible=0;dropTarget=0;pointerEvents=0;fillColor=none;top=0;left=0;bottom=0;right=0;points=[[0,0.5],[1,0.5]];portConstraint=eastwest;" vertex="1" parent="DA4g0Scjdkf1gucJsFsH-185">
          <mxGeometry y="30" width="221" height="30" as="geometry" />
        </mxCell>
        <mxCell id="DA4g0Scjdkf1gucJsFsH-187" value="PK,FK1" style="shape=partialRectangle;connectable=0;fillColor=none;top=0;left=0;bottom=0;right=0;fontStyle=1;overflow=hidden;" vertex="1" parent="DA4g0Scjdkf1gucJsFsH-186">
          <mxGeometry width="60" height="30" as="geometry" />
        </mxCell>
        <mxCell id="DA4g0Scjdkf1gucJsFsH-188" value="id" style="shape=partialRectangle;connectable=0;fillColor=none;top=0;left=0;bottom=0;right=0;align=left;spacingLeft=6;fontStyle=5;overflow=hidden;" vertex="1" parent="DA4g0Scjdkf1gucJsFsH-186">
          <mxGeometry x="60" width="161" height="30" as="geometry" />
        </mxCell>
        <mxCell id="DA4g0Scjdkf1gucJsFsH-206" value="" style="shape=partialRectangle;collapsible=0;dropTarget=0;pointerEvents=0;fillColor=none;top=0;left=0;bottom=0;right=0;points=[[0,0.5],[1,0.5]];portConstraint=eastwest;" vertex="1" parent="1">
          <mxGeometry x="610" y="441" width="210" height="30" as="geometry" />
        </mxCell>
        <mxCell id="DA4g0Scjdkf1gucJsFsH-207" value="" style="shape=partialRectangle;connectable=0;fillColor=none;top=0;left=0;bottom=0;right=0;editable=1;overflow=hidden;" vertex="1" parent="DA4g0Scjdkf1gucJsFsH-206">
          <mxGeometry width="80" height="30" as="geometry" />
        </mxCell>
        <mxCell id="DA4g0Scjdkf1gucJsFsH-208" value="project_type=order&#xa;project_id=orderID" style="shape=partialRectangle;connectable=0;fillColor=none;top=0;left=0;bottom=0;right=0;align=left;spacingLeft=6;overflow=hidden;" vertex="1" parent="DA4g0Scjdkf1gucJsFsH-206">
          <mxGeometry x="50" width="160" height="30" as="geometry" />
        </mxCell>
        <mxCell id="DA4g0Scjdkf1gucJsFsH-210" value="BPMN Engine" style="ellipse;shape=cloud;whiteSpace=wrap;html=1;align=center;" vertex="1" parent="1">
          <mxGeometry x="360" y="390" width="120" height="220" as="geometry" />
        </mxCell>
        <mxCell id="DA4g0Scjdkf1gucJsFsH-211" value="" style="shape=partialRectangle;collapsible=0;dropTarget=0;pointerEvents=0;fillColor=none;top=0;left=0;bottom=0;right=0;points=[[0,0.5],[1,0.5]];portConstraint=eastwest;" vertex="1" parent="1">
          <mxGeometry x="40" y="650" width="160" height="80" as="geometry" />
        </mxCell>
        <mxCell id="DA4g0Scjdkf1gucJsFsH-212" value="param" style="shape=partialRectangle;connectable=0;fillColor=none;top=0;left=0;bottom=0;right=0;editable=1;overflow=hidden;" vertex="1" parent="DA4g0Scjdkf1gucJsFsH-211">
          <mxGeometry width="60" height="80" as="geometry" />
        </mxCell>
        <mxCell id="DA4g0Scjdkf1gucJsFsH-213" value="workflow_id&#xa;version&#xa;context&#xa;definitionID&#xa;deployID" style="shape=partialRectangle;connectable=0;fillColor=none;top=0;left=0;bottom=0;right=0;align=left;spacingLeft=6;overflow=hidden;" vertex="1" parent="DA4g0Scjdkf1gucJsFsH-211">
          <mxGeometry x="60" width="100" height="80" as="geometry" />
        </mxCell>
        <mxCell id="DA4g0Scjdkf1gucJsFsH-214" style="edgeStyle=orthogonalEdgeStyle;rounded=0;orthogonalLoop=1;jettySize=auto;html=1;exitX=0;exitY=0.5;exitDx=0;exitDy=0;entryX=0.875;entryY=0.5;entryDx=0;entryDy=0;entryPerimeter=0;" edge="1" parent="1" source="DA4g0Scjdkf1gucJsFsH-186" target="DA4g0Scjdkf1gucJsFsH-210">
          <mxGeometry relative="1" as="geometry">
            <mxPoint x="640" y="285" as="sourcePoint" />
          </mxGeometry>
        </mxCell>
        <mxCell id="DA4g0Scjdkf1gucJsFsH-215" value="start/stop/undo" style="edgeLabel;html=1;align=center;verticalAlign=middle;resizable=0;points=[];" vertex="1" connectable="0" parent="DA4g0Scjdkf1gucJsFsH-214">
          <mxGeometry x="-0.2491" y="-1" relative="1" as="geometry">
            <mxPoint as="offset" />
          </mxGeometry>
        </mxCell>
        <mxCell id="DA4g0Scjdkf1gucJsFsH-217" value="tasklists/job/history" style="shape=table;startSize=30;container=1;collapsible=1;childLayout=tableLayout;fixedRows=1;rowLines=0;fontStyle=1;align=center;resizeLast=1;" vertex="1" parent="1">
          <mxGeometry x="360" y="620" width="170" height="120" as="geometry" />
        </mxCell>
        <mxCell id="DA4g0Scjdkf1gucJsFsH-218" value="" style="shape=partialRectangle;collapsible=0;dropTarget=0;pointerEvents=0;fillColor=none;top=0;left=0;bottom=0;right=0;points=[[0,0.5],[1,0.5]];portConstraint=eastwest;" vertex="1" parent="DA4g0Scjdkf1gucJsFsH-217">
          <mxGeometry y="30" width="170" height="30" as="geometry" />
        </mxCell>
        <mxCell id="DA4g0Scjdkf1gucJsFsH-219" value="PK,FK1" style="shape=partialRectangle;connectable=0;fillColor=none;top=0;left=0;bottom=0;right=0;fontStyle=1;overflow=hidden;" vertex="1" parent="DA4g0Scjdkf1gucJsFsH-218">
          <mxGeometry width="60" height="30" as="geometry" />
        </mxCell>
        <mxCell id="DA4g0Scjdkf1gucJsFsH-220" value="id" style="shape=partialRectangle;connectable=0;fillColor=none;top=0;left=0;bottom=0;right=0;align=left;spacingLeft=6;fontStyle=5;overflow=hidden;" vertex="1" parent="DA4g0Scjdkf1gucJsFsH-218">
          <mxGeometry x="60" width="110" height="30" as="geometry" />
        </mxCell>
        <mxCell id="DA4g0Scjdkf1gucJsFsH-221" value="" style="shape=partialRectangle;collapsible=0;dropTarget=0;pointerEvents=0;fillColor=none;top=0;left=0;bottom=0;right=0;points=[[0,0.5],[1,0.5]];portConstraint=eastwest;" vertex="1" parent="DA4g0Scjdkf1gucJsFsH-217">
          <mxGeometry y="60" width="170" height="30" as="geometry" />
        </mxCell>
        <mxCell id="DA4g0Scjdkf1gucJsFsH-222" value="" style="shape=partialRectangle;connectable=0;fillColor=none;top=0;left=0;bottom=0;right=0;editable=1;overflow=hidden;" vertex="1" parent="DA4g0Scjdkf1gucJsFsH-221">
          <mxGeometry width="60" height="30" as="geometry" />
        </mxCell>
        <mxCell id="DA4g0Scjdkf1gucJsFsH-223" value="instance_id" style="shape=partialRectangle;connectable=0;fillColor=none;top=0;left=0;bottom=0;right=0;align=left;spacingLeft=6;overflow=hidden;" vertex="1" parent="DA4g0Scjdkf1gucJsFsH-221">
          <mxGeometry x="60" width="110" height="30" as="geometry" />
        </mxCell>
        <mxCell id="DA4g0Scjdkf1gucJsFsH-224" value="" style="shape=partialRectangle;collapsible=0;dropTarget=0;pointerEvents=0;fillColor=none;top=0;left=0;bottom=0;right=0;points=[[0,0.5],[1,0.5]];portConstraint=eastwest;" vertex="1" parent="DA4g0Scjdkf1gucJsFsH-217">
          <mxGeometry y="90" width="170" height="30" as="geometry" />
        </mxCell>
        <mxCell id="DA4g0Scjdkf1gucJsFsH-225" value="" style="shape=partialRectangle;connectable=0;fillColor=none;top=0;left=0;bottom=0;right=0;editable=1;overflow=hidden;" vertex="1" parent="DA4g0Scjdkf1gucJsFsH-224">
          <mxGeometry width="60" height="30" as="geometry" />
        </mxCell>
        <mxCell id="DA4g0Scjdkf1gucJsFsH-226" value="workflow_id" style="shape=partialRectangle;connectable=0;fillColor=none;top=0;left=0;bottom=0;right=0;align=left;spacingLeft=6;overflow=hidden;" vertex="1" parent="DA4g0Scjdkf1gucJsFsH-224">
          <mxGeometry x="60" width="110" height="30" as="geometry" />
        </mxCell>
        <mxCell id="DA4g0Scjdkf1gucJsFsH-230" value="&lt;font style=&quot;font-size: 14px&quot;&gt;Engine Domain&lt;/font&gt;" style="text;strokeColor=none;fillColor=none;html=1;fontSize=24;fontStyle=1;verticalAlign=middle;align=center;" vertex="1" parent="1">
          <mxGeometry x="365" y="140" width="120" height="40" as="geometry" />
        </mxCell>
        <mxCell id="DA4g0Scjdkf1gucJsFsH-231" value="比如订单，理赔案件" style="text;html=1;strokeColor=none;fillColor=none;align=center;verticalAlign=middle;whiteSpace=wrap;rounded=0;" vertex="1" parent="1">
          <mxGeometry x="600" y="180" width="110" height="10" as="geometry" />
        </mxCell>
        <mxCell id="DA4g0Scjdkf1gucJsFsH-238" value="" style="endArrow=classic;html=1;" edge="1" parent="1">
          <mxGeometry width="50" height="50" relative="1" as="geometry">
            <mxPoint x="400" y="440" as="sourcePoint" />
            <mxPoint x="450" y="390" as="targetPoint" />
          </mxGeometry>
        </mxCell>
        <mxCell id="DA4g0Scjdkf1gucJsFsH-239" style="edgeStyle=orthogonalEdgeStyle;rounded=0;orthogonalLoop=1;jettySize=auto;html=1;exitX=1;exitY=0.5;exitDx=0;exitDy=0;entryX=0.07;entryY=0.4;entryDx=0;entryDy=0;entryPerimeter=0;" edge="1" parent="1" source="DA4g0Scjdkf1gucJsFsH-124" target="DA4g0Scjdkf1gucJsFsH-210">
          <mxGeometry relative="1" as="geometry">
            <Array as="points">
              <mxPoint x="280" y="245" />
              <mxPoint x="280" y="478" />
            </Array>
          </mxGeometry>
        </mxCell>
        <mxCell id="DA4g0Scjdkf1gucJsFsH-240" value="deploy.do" style="edgeLabel;html=1;align=center;verticalAlign=middle;resizable=0;points=[];" vertex="1" connectable="0" parent="DA4g0Scjdkf1gucJsFsH-239">
          <mxGeometry x="0.1211" y="3" relative="1" as="geometry">
            <mxPoint as="offset" />
          </mxGeometry>
        </mxCell>
        <mxCell id="DA4g0Scjdkf1gucJsFsH-244" value="" style="shape=partialRectangle;collapsible=0;dropTarget=0;pointerEvents=0;fillColor=none;top=0;left=0;bottom=0;right=0;points=[[0,0.5],[1,0.5]];portConstraint=eastwest;" vertex="1" parent="1">
          <mxGeometry x="40" y="330" width="160" height="30" as="geometry" />
        </mxCell>
        <mxCell id="DA4g0Scjdkf1gucJsFsH-245" value="status" style="shape=partialRectangle;connectable=0;fillColor=none;top=0;left=0;bottom=0;right=0;editable=1;overflow=hidden;" vertex="1" parent="DA4g0Scjdkf1gucJsFsH-244">
          <mxGeometry width="60" height="30" as="geometry" />
        </mxCell>
        <mxCell id="DA4g0Scjdkf1gucJsFsH-246" value="deploy.current&#xa;execute.current" style="shape=partialRectangle;connectable=0;fillColor=none;top=0;left=0;bottom=0;right=0;align=left;spacingLeft=6;overflow=hidden;" vertex="1" parent="DA4g0Scjdkf1gucJsFsH-244">
          <mxGeometry x="60" width="100" height="30" as="geometry" />
        </mxCell>
        <mxCell id="DA4g0Scjdkf1gucJsFsH-247" value="" style="shape=partialRectangle;collapsible=0;dropTarget=0;pointerEvents=0;fillColor=none;top=0;left=0;bottom=0;right=0;points=[[0,0.5],[1,0.5]];portConstraint=eastwest;" vertex="1" parent="1">
          <mxGeometry x="600" y="490" width="220" height="30" as="geometry" />
        </mxCell>
        <mxCell id="DA4g0Scjdkf1gucJsFsH-248" value="status" style="shape=partialRectangle;connectable=0;fillColor=none;top=0;left=0;bottom=0;right=0;editable=1;overflow=hidden;" vertex="1" parent="DA4g0Scjdkf1gucJsFsH-247">
          <mxGeometry width="82.5" height="30" as="geometry" />
        </mxCell>
        <mxCell id="DA4g0Scjdkf1gucJsFsH-249" value="execute.station_id&#xa;execute.instance_id" style="shape=partialRectangle;connectable=0;fillColor=none;top=0;left=0;bottom=0;right=0;align=left;spacingLeft=6;overflow=hidden;" vertex="1" parent="DA4g0Scjdkf1gucJsFsH-247">
          <mxGeometry x="82.5" width="137.5" height="30" as="geometry" />
        </mxCell>
        <mxCell id="DA4g0Scjdkf1gucJsFsH-250" value="" style="shape=partialRectangle;collapsible=0;dropTarget=0;pointerEvents=0;fillColor=none;top=0;left=0;bottom=0;right=0;points=[[0,0.5],[1,0.5]];portConstraint=eastwest;" vertex="1" parent="1">
          <mxGeometry x="600" y="520" width="220" height="30" as="geometry" />
        </mxCell>
        <mxCell id="DA4g0Scjdkf1gucJsFsH-251" value="status" style="shape=partialRectangle;connectable=0;fillColor=none;top=0;left=0;bottom=0;right=0;editable=1;overflow=hidden;" vertex="1" parent="DA4g0Scjdkf1gucJsFsH-250">
          <mxGeometry width="82.5" height="30" as="geometry" />
        </mxCell>
        <mxCell id="DA4g0Scjdkf1gucJsFsH-252" value="execute.station_id&#xa;execute.instance_id" style="shape=partialRectangle;connectable=0;fillColor=none;top=0;left=0;bottom=0;right=0;align=left;spacingLeft=6;overflow=hidden;" vertex="1" parent="DA4g0Scjdkf1gucJsFsH-250">
          <mxGeometry x="82.5" width="137.5" height="30" as="geometry" />
        </mxCell>
      </root>
    </mxGraphModel>
  </diagram>
</mxfile>
